<?xml version="1.0" ?><svg style="enable-background:new 0 0 48 48;" version="1.1" viewBox="0 0 48 48" xml:space="preserve" xmlns="http://www.w3.org/2000/svg" xmlns:xlink="http://www.w3.org/1999/xlink"><g id="Icons"><g id="Icons_18_"><g><path d="M38.8824,13.85055v7.8501c0,1.2-0.99,2.19-2.2,2.19h-7.85c-0.92,0-1.71-0.57-2.03-1.37     c-0.1-0.25-0.16-0.5301-0.16-0.82v-7.8501c0-1.2099,0.98-2.1999,2.19-2.1999h7.85     C37.8924,11.65065,38.8824,12.64065,38.8824,13.85055z" style="fill:#F43735;"/><polygon points="25.4376,16.34935 25.4376,21.92785 21.8176,24.46385 10.0547,16.34935    " style="fill:#4AA0EC;"/><path d="M34.5176,25.08935v8.44h-22.41l-2.99,2.82v-19.08l12.7,8.7664l4-2.7964     c0.57,1.13,1.72,1.85,3.01,1.85H34.5176z" style="fill:#4AA0EC;"/><path d="M33.0324,15.17065l-1.14,0.61l0.14,0.54l0.9-0.49h0.02v4.54h0.68v-5.2H33.0324L33.0324,15.17065z" style="fill:#FFFFFF;"/></g></g></g></svg>