<?xml version="1.0" ?><!DOCTYPE svg  PUBLIC '-//W3C//DTD SVG 1.1//EN'  'http://www.w3.org/Graphics/SVG/1.1/DTD/svg11.dtd'><svg height="512px" style="enable-background:new 0 0 512 512;" version="1.1" viewBox="0 0 512 512" width="512px" xml:space="preserve" xmlns="http://www.w3.org/2000/svg" xmlns:xlink="http://www.w3.org/1999/xlink"><g id="twitter__x2C_"><path d="M492.871,374.968c0,65.432-53.089,118.482-118.585,118.482H137.159   c-65.487,0-118.556-53.051-118.556-118.482V138.009c0-65.451,53.069-118.483,118.556-118.483h237.127   c65.496,0,118.585,53.032,118.585,118.483V374.968z" style="fill:#00ABE3;"/><path d="M395.776,142.386c-11.753,6.865-24.778,11.84-38.634,14.521   c-11.078-11.628-26.883-18.898-44.386-18.898c-33.578,0-60.808,26.786-60.808,59.839c0,4.687,0.541,9.237,1.563,13.615   c-50.541-2.488-95.35-26.304-125.349-62.5c-5.23,8.832-8.24,19.111-8.24,30.083c0,20.75,10.758,39.051,27.065,49.773   c-9.958-0.309-19.346-2.989-27.547-7.463c0,0.231,0,0.501,0,0.752c0,28.965,20.966,53.142,48.794,58.657   c-5.113,1.368-10.478,2.102-16.036,2.102c-3.918,0-7.72-0.386-11.444-1.08c7.758,23.758,30.201,41.057,56.812,41.538   c-20.822,16.046-47.029,25.61-75.541,25.61c-4.921,0-9.746-0.29-14.512-0.829c26.93,16.97,58.906,26.862,93.237,26.862   c111.871,0,173.026-91.138,173.026-170.197c0-2.584-0.039-5.168-0.154-7.733c11.868-8.427,22.192-18.976,30.336-30.971   c-10.903,4.763-22.617,7.965-34.929,9.411C381.592,168.073,391.223,156.367,395.776,142.386z" style="fill:#FFFFFF;"/><path d="M395.776,142.386c-11.753,6.865-24.778,11.84-38.634,14.521   c-11.078-11.628-26.883-18.898-44.386-18.898c-33.578,0-60.808,26.786-60.808,59.839c0,4.687,0.541,9.237,1.563,13.615   c-50.541-2.488-95.35-26.304-125.349-62.5c-5.23,8.832-8.24,19.111-8.24,30.083c0,20.75,10.758,39.051,27.065,49.773   c-9.958-0.309-19.346-2.989-27.547-7.463c0,0.231,0,0.501,0,0.752c0,28.965,20.966,53.142,48.794,58.657   c-5.113,1.368-10.478,2.102-16.036,2.102c-3.918,0-7.72-0.386-11.444-1.08c7.758,23.758,30.201,41.057,56.812,41.538   c-20.822,16.046-47.029,25.61-75.541,25.61c-4.921,0-9.746-0.29-14.512-0.829c26.93,16.97,58.906,26.862,93.237,26.862   c111.871,0,173.026-91.138,173.026-170.197c0-2.584-0.039-5.168-0.154-7.733c11.868-8.427,22.192-18.976,30.336-30.971   c-10.903,4.763-22.617,7.965-34.929,9.411C381.592,168.073,391.223,156.367,395.776,142.386z" style="fill:#FFFFFF;"/><path d="M312.757,138.009c17.503,0,33.308,7.27,44.386,18.898c13.855-2.681,26.881-7.656,38.634-14.521   c-4.554,13.981-14.185,25.687-26.746,33.091c12.312-1.446,24.025-4.647,34.929-9.411c-8.144,11.995-18.468,22.543-30.336,30.971   c0.115,2.564,0.154,5.149,0.154,7.733c0,79.06-61.155,170.197-173.026,170.197c-34.331,0-66.307-9.893-93.237-26.862   c4.767,0.539,9.591,0.829,14.512,0.829c28.512,0,54.718-9.564,75.541-25.61c-26.611-0.481-49.054-17.78-56.812-41.538   c3.724,0.694,7.526,1.08,11.444,1.08c5.558,0,10.922-0.733,16.036-2.102c-27.828-5.516-48.794-29.692-48.794-58.657   c0-0.251,0-0.521,0-0.752c8.201,4.474,17.589,7.155,27.547,7.463c-16.307-10.722-27.065-29.023-27.065-49.773   c0-10.973,3.01-21.251,8.24-30.083c29.999,36.197,74.808,60.013,125.349,62.5c-1.022-4.377-1.563-8.928-1.563-13.615   C251.949,164.794,279.179,138.009,312.757,138.009 M395.776,142.386h0.005 M312.757,128.132c-38.976,0-70.685,31.274-70.685,69.716   c0,0.912,0.018,1.823,0.053,2.733c-41.458-5.07-79.716-25.776-106.357-57.921c-1.885-2.273-4.678-3.574-7.604-3.574   c-0.258,0-0.518,0.01-0.777,0.03c-3.204,0.253-6.084,2.048-7.722,4.814c-6.292,10.625-9.619,22.769-9.619,35.116   c0,11.525,2.868,22.645,8.145,32.512c-1.319,0.168-2.611,0.604-3.792,1.304c-2.998,1.78-4.835,5.007-4.835,8.494v0.752   c0,20.674,9.318,39.651,24.333,52.571c-0.197,0.189-0.387,0.389-0.569,0.597c-2.299,2.622-3.044,6.262-1.962,9.576   c6.483,19.854,21.42,35.328,40.163,43.018c-15.267,7.364-32.047,11.188-49.502,11.188c-4.396,0-8.905-0.258-13.402-0.767   c-0.374-0.042-0.747-0.063-1.116-0.063c-4.15,0-7.914,2.616-9.314,6.607c-1.525,4.347,0.157,9.171,4.054,11.627   c29.466,18.568,63.528,28.383,98.502,28.383c28.139,0,54.492-5.506,78.326-16.364c21.895-9.975,41.238-24.231,57.494-42.372   c29.922-33.392,47.083-77.617,47.083-121.338c0-0.991-0.006-1.943-0.018-2.861c11.06-8.539,20.628-18.709,28.494-30.295   c2.471-3.64,2.237-8.475-0.574-11.858c-1.921-2.313-4.729-3.567-7.601-3.567c-1.249,0-2.51,0.237-3.716,0.727   c1.925-3.553,3.542-7.285,4.824-11.157c0.383-1.053,0.592-2.189,0.592-3.374c0-5.426-4.372-9.83-9.787-9.876   c-0.031,0-0.063,0-0.094,0c-0.122,0-0.243,0.002-0.365,0.007c-1.736,0.063-3.359,0.575-4.755,1.423   c-9.514,5.539-19.735,9.633-30.45,12.202C347.286,134.637,330.293,128.132,312.757,128.132L312.757,128.132z" style="fill:#0080AA;"/><path d="M364.039,478.061H147.415c-62.448,0-113.253-50.818-113.253-113.283V148.179   c0-62.454,50.805-113.263,113.253-113.263h216.624c62.459,0,113.272,50.81,113.272,113.263v216.599   C477.312,427.242,426.498,478.061,364.039,478.061z M147.415,44.818c-56.988,0-103.351,46.367-103.351,103.36v216.599   c0,57.004,46.363,103.381,103.351,103.381h216.624c56.998,0,103.37-46.377,103.37-103.381V148.179   c0-56.993-46.372-103.36-103.37-103.36H147.415z" style="fill:#0080AA;"/></g><g id="Layer_1"/></svg>