<?xml version="1.0" ?><!DOCTYPE svg  PUBLIC '-//W3C//DTD SVG 1.1//EN'  'http://www.w3.org/Graphics/SVG/1.1/DTD/svg11.dtd'><svg height="512px" style="enable-background:new 0 0 512 512;" version="1.1" viewBox="0 0 512 512" width="512px" xml:space="preserve" xmlns="http://www.w3.org/2000/svg" xmlns:xlink="http://www.w3.org/1999/xlink"><g id="whatsapp__x2C_"><path d="M492.871,374.948c0,65.451-53.089,118.502-118.565,118.502H137.168   c-65.497,0-118.566-53.051-118.566-118.502V138.009c0-65.451,53.069-118.483,118.566-118.483h237.137   c65.477,0,118.565,53.032,118.565,118.483V374.948z" style="fill:#00C451;"/><path d="M403.947,252.692c0,79.677-65.149,144.279-145.524,144.279c-25.513,0-49.481-6.52-70.342-17.954   l-80.555,25.57l26.265-77.406c-13.257-21.752-20.881-47.247-20.881-74.509c0-79.682,65.15-144.284,145.512-144.284   C338.798,108.389,403.947,172.991,403.947,252.692z M258.423,131.375c-67.467,0-122.335,54.419-122.335,121.317   c0,26.529,8.665,51.117,23.302,71.114l-15.274,45.048l47.015-14.945c19.316,12.67,42.455,20.074,67.292,20.074   c67.465,0,122.349-54.419,122.349-121.311C380.771,185.795,325.888,131.375,258.423,131.375z M331.909,285.913   c-0.908-1.484-3.282-2.372-6.833-4.127c-3.569-1.773-21.112-10.336-24.372-11.512c-3.282-1.177-5.655-1.774-8.049,1.773   c-2.373,3.548-9.203,11.493-11.288,13.865c-2.084,2.353-4.149,2.643-7.72,0.887c-3.569-1.773-15.071-5.515-28.696-17.567   c-10.594-9.367-17.754-20.937-19.838-24.466c-2.084-3.548-0.212-5.458,1.564-7.231c1.601-1.581,3.57-4.127,5.345-6.19   c1.795-2.063,2.393-3.529,3.57-5.901c1.196-2.353,0.598-4.417-0.291-6.19c-0.887-1.774-8.027-19.169-11-26.246   c-2.972-7.078-5.943-5.901-8.028-5.901c-2.084,0-4.458-0.309-6.831-0.309c-2.393,0-6.252,0.887-9.514,4.436   c-3.281,3.529-12.48,12.092-12.48,29.485c0,17.414,12.77,34.229,14.564,36.582c1.775,2.353,24.663,39.219,60.923,53.393   c36.279,14.155,36.279,9.431,42.802,8.833c6.542-0.579,21.112-8.543,24.085-16.797C332.796,294.456,332.796,287.38,331.909,285.913   L331.909,285.913z" style="fill:#FFFFFF;"/><path d="M258.423,108.389c80.375,0,145.524,64.602,145.524,144.304c0,79.677-65.149,144.279-145.524,144.279   c-25.513,0-49.481-6.52-70.342-17.954l-80.555,25.57l26.265-77.406c-13.257-21.752-20.881-47.247-20.881-74.509   C112.911,172.991,178.061,108.389,258.423,108.389 M144.116,368.854l47.015-14.945c19.316,12.67,42.455,20.074,67.292,20.074   c67.465,0,122.349-54.419,122.349-121.311c0-66.878-54.884-121.297-122.349-121.297c-67.467,0-122.335,54.419-122.335,121.317   c0,26.529,8.665,51.117,23.302,71.114L144.116,368.854 M209.444,186.798c2.374,0,4.747,0.309,6.831,0.309   c0.52,0,1.095-0.073,1.712-0.073c1.855,0,4.085,0.663,6.316,5.975c2.973,7.077,10.113,24.472,11,26.246   c0.889,1.774,1.487,3.838,0.291,6.19c-1.177,2.372-1.775,3.837-3.57,5.901c-1.775,2.063-3.744,4.609-5.345,6.19   c-1.776,1.774-3.648,3.684-1.564,7.231c2.084,3.529,9.244,15.099,19.838,24.466c13.625,12.053,25.126,15.794,28.696,17.567   c1.529,0.752,2.782,1.129,3.88,1.129c1.463,0,2.648-0.671,3.84-2.016c2.085-2.372,8.915-10.317,11.288-13.865   c1.354-2.006,2.7-2.687,4.209-2.687c1.159,0,2.414,0.401,3.84,0.913c3.26,1.176,20.803,9.738,24.372,11.512   c3.551,1.755,5.925,2.643,6.833,4.127c0.887,1.467,0.887,8.543-2.085,16.816c-2.973,8.254-17.543,16.218-24.085,16.797   c-2.743,0.251-4.332,1.232-7.951,1.232c-4.987,0-13.828-1.863-34.851-10.065c-36.26-14.174-59.148-51.04-60.923-53.393   c-1.794-2.353-14.564-19.168-14.564-36.582c0-17.394,9.2-25.956,12.48-29.485C203.191,187.685,207.051,186.798,209.444,186.798    M258.423,98.512c-41.489,0-80.5,16.025-109.847,45.125c-29.369,29.121-45.542,67.845-45.542,109.037   c0,26.58,6.884,52.621,19.951,75.618l-24.812,73.123c-1.197,3.527-0.308,7.429,2.3,10.089c1.887,1.924,4.441,2.962,7.054,2.962   c0.999,0,2.006-0.151,2.987-0.463l76.604-24.316c21.938,11.24,46.496,17.163,71.304,17.163c41.494,0,80.509-16.025,109.857-45.124   c29.369-29.12,45.544-67.842,45.544-109.032c0-41.201-16.175-79.931-45.544-109.053C338.934,114.538,299.918,98.512,258.423,98.512   L258.423,98.512z M159.744,353.522l9-26.544c1.033-3.048,0.517-6.408-1.384-9.006c-13.997-19.122-21.395-41.696-21.395-65.28   c0-61.448,50.449-111.44,112.458-111.44c62.017,0,112.472,49.983,112.472,111.42c0,61.444-50.455,111.434-112.472,111.434   c-22.071,0-43.467-6.382-61.875-18.456c-1.627-1.067-3.514-1.618-5.417-1.618c-1.004,0-2.013,0.153-2.992,0.464L159.744,353.522   L159.744,353.522z M209.444,176.921c-6.202,0-12.311,2.771-16.765,7.606c-0.174,0.187-0.366,0.389-0.574,0.608   c-3.974,4.187-14.532,15.308-14.532,35.583c0,18.713,11.499,35.882,16.522,42.485c0.116,0.165,0.285,0.415,0.507,0.742   c18.287,26.906,41.278,46.775,64.74,55.946c24.264,9.467,33.051,10.743,38.446,10.743c3.32,0,5.607-0.551,7.277-0.954   c0.772-0.186,1.192-0.284,1.575-0.319c4.942-0.438,11.61-3.07,17.807-7.039c5.229-3.35,12.019-8.887,14.67-16.247   c0.633-1.762,6.021-17.373,1.244-25.273c-0.009-0.015-0.018-0.029-0.027-0.044c-2.262-3.698-5.739-5.359-9.102-6.967   c-0.553-0.264-1.146-0.547-1.78-0.86c-0.186-0.093-20.995-10.36-25.396-11.948c-2.032-0.729-4.414-1.499-7.191-1.499   c-3.489,0-8.472,1.221-12.396,7.039c-1.398,2.091-5.313,6.825-8.464,10.5c-0.262-0.114-0.533-0.23-0.814-0.352   c-4.713-2.029-13.483-5.805-23.693-14.837c-7.369-6.516-12.971-14.333-16.085-19.185c0.83-0.94,1.653-1.933,2.459-2.907   c0.55-0.664,1.098-1.327,1.628-1.944c2.396-2.76,3.482-4.982,4.532-7.132c0.125-0.254,0.254-0.52,0.392-0.797   c1.66-3.292,2.943-8.549-0.265-14.992c-0.643-1.363-4.327-10.245-6.769-16.132c-1.533-3.695-2.987-7.201-3.979-9.563   c-3.35-7.979-8.539-12.026-15.421-12.026c-0.639,0-1.172,0.034-1.562,0.059c-0.075,0.005-0.148,0.01-0.22,0.014   c-0.669-0.004-1.542-0.063-2.464-0.125C212.457,177.019,211,176.921,209.444,176.921L209.444,176.921z" style="fill:#A7A9AC;"/><path d="M364.039,478.061H147.415c-62.448,0-113.253-50.818-113.253-113.283V148.179   c0-62.454,50.805-113.263,113.253-113.263h216.624c62.459,0,113.272,50.81,113.272,113.263v216.599   C477.312,427.242,426.498,478.061,364.039,478.061z M147.415,44.818c-56.988,0-103.351,46.367-103.351,103.36v216.599   c0,57.004,46.363,103.381,103.351,103.381h216.624c56.998,0,103.37-46.377,103.37-103.381V148.179   c0-56.993-46.372-103.36-103.37-103.36H147.415z" style="fill:#A7A9AC;"/></g><g id="Layer_1"/></svg>