<?xml version="1.0" ?><svg style="enable-background:new 0 0 48 48;" version="1.1" viewBox="0 0 48 48" xml:space="preserve" xmlns="http://www.w3.org/2000/svg" xmlns:xlink="http://www.w3.org/1999/xlink"><g id="Icons"><g><path d="M14.33435,22.4524h-3.2677c-0.4676,0-0.85,0.3825-0.85,0.8499v8.7c0,0.4675,0.3824,0.85,0.85,0.85    h1.32l-0.18,2l2.3573-1.8133c0.1573-0.121,0.3503-0.1867,0.5488-0.1867h9.9239c0.4639,0,0.84-0.376,0.84-0.8399v-2.2251    L14.33435,22.4524z" style="fill:#F4F4F4;"/><path d="M27.09625,18.3123h-12.3896c-0.55,0-1,0.4601-1,1.01v2.15v0.9801v7.1699c0,0.55,0.45,0.99,1,0.99    h11.17h0.93l3.07,2.36l-0.22-2.36h1.57c0.54,0,1-0.44,1-0.99l0.0212-2.9758L27.09625,18.3123z" style="fill:#5F83CF;"/><path d="M32.25125,26.9078l-0.01,1.38h-3.58c-1.08,0-1.95-0.88-1.95-1.95v-1.38    c0,1.08,0.9821,1.2525,2.0621,1.2525L32.25125,26.9078z" style="opacity:0.1;"/><g><path d="M35.83305,26.9068h-7.1705c-1.0771,0-1.9503-0.8732-1.9503-1.9503V15.098     c0-1.0771,0.8732-1.9503,1.9503-1.9503h7.1705c1.0771,0,1.9503,0.8732,1.9503,1.9503v9.8585     C37.78335,26.0336,36.91015,26.9068,35.83305,26.9068z" style="fill:#F43734;"/><path d="M33.25395,23.4524h-0.8377v-5.3378c-0.2017,0.1923-0.4663,0.3847-0.7933,0.577     c-0.3277,0.1924-0.6215,0.3366-0.8821,0.4328v-0.8097c0.4685-0.2203,0.878-0.4871,1.2286-0.8005     c0.3506-0.3133,0.5988-0.6174,0.7446-0.9121h0.5399V23.4524z" style="fill:#FFFFFF;"/></g></g></g></svg>