<?xml version="1.0" ?><!DOCTYPE svg  PUBLIC '-//W3C//DTD SVG 1.1//EN'  'http://www.w3.org/Graphics/SVG/1.1/DTD/svg11.dtd'><svg height="512px" style="enable-background:new 0 0 512 512;" version="1.1" viewBox="0 0 512 512" width="512px" xml:space="preserve" xmlns="http://www.w3.org/2000/svg" xmlns:xlink="http://www.w3.org/1999/xlink"><g id="instagram__x2C_"><g><path d="M492.871,374.948c0,65.451-53.089,118.502-118.565,118.502H137.168    c-65.497,0-118.566-53.051-118.566-118.502V138.009c0-65.451,53.069-118.483,118.566-118.483h237.137    c65.477,0,118.565,53.032,118.565,118.483V374.948z" style="fill:#2D80A6;"/><path d="M351.342,256.496c0-52.801-42.823-95.554-95.602-95.554c-52.838,0-95.606,42.753-95.606,95.554    c0,52.766,42.769,95.499,95.606,95.499C308.519,351.995,351.342,309.262,351.342,256.496L351.342,256.496z M349.508,147.945    c-8.529,0-15.381,6.942-15.381,15.389c0,8.523,6.852,15.369,15.381,15.369c8.471,0,15.418-6.846,15.418-15.369    C364.926,154.887,357.979,147.945,349.508,147.945L349.508,147.945z M177.607,125.883h156.25    c28.966,0,52.567,23.643,52.567,52.472v156.227c0,28.906-23.602,52.491-52.567,52.491h-156.25    c-28.918,0-52.568-23.585-52.568-52.491V178.355C125.04,149.526,148.689,125.883,177.607,125.883L177.607,125.883z     M333.857,108.374h-156.25c-38.528,0-70.081,31.529-70.081,69.981v156.227c0,38.549,31.553,70.021,70.081,70.021h156.25    c38.595,0,70.09-31.472,70.09-70.021V178.355C403.947,139.903,372.452,108.374,333.857,108.374L333.857,108.374z M180,256.496    c0-41.809,33.921-75.729,75.74-75.729c41.836,0,75.725,33.921,75.725,75.729c0,41.773-33.889,75.675-75.725,75.675    C213.921,332.171,180,298.27,180,256.496L180,256.496z" style="fill:#FFFFFF;"/><path d="M333.857,108.374c38.595,0,70.09,31.529,70.09,69.981v156.227c0,38.549-31.495,70.021-70.09,70.021    h-156.25c-38.528,0-70.081-31.472-70.081-70.021V178.355c0-38.452,31.553-69.981,70.081-69.981H333.857 M177.607,387.073h156.25    c28.966,0,52.567-23.585,52.567-52.491V178.355c0-28.829-23.602-52.472-52.567-52.472h-156.25    c-28.918,0-52.568,23.643-52.568,52.472v156.227C125.04,363.488,148.689,387.073,177.607,387.073 M349.508,147.945    c8.471,0,15.418,6.942,15.418,15.389c0,8.523-6.947,15.369-15.418,15.369c-8.529,0-15.381-6.846-15.381-15.369    C334.127,154.887,340.979,147.945,349.508,147.945 M255.74,160.942c52.779,0,95.602,42.753,95.602,95.554    c0,52.766-42.823,95.499-95.602,95.499c-52.838,0-95.606-42.733-95.606-95.499C160.133,203.695,202.902,160.942,255.74,160.942     M255.74,332.171c41.836,0,75.725-33.901,75.725-75.675c0-41.809-33.889-75.729-75.725-75.729    c-41.819,0-75.74,33.921-75.74,75.729C180,298.27,213.921,332.171,255.74,332.171 M333.857,98.497h-156.25    c-21.268,0-41.322,8.332-56.469,23.46c-15.147,15.129-23.489,35.158-23.489,56.398v156.227c0,44.056,35.869,79.897,79.958,79.897    h156.25c44.094,0,79.967-35.842,79.967-79.897V178.355C413.824,134.321,377.951,98.497,333.857,98.497L333.857,98.497z     M177.607,377.196c-23.54,0-42.691-19.117-42.691-42.614V178.355c0-23.487,19.151-42.595,42.691-42.595h156.25    c4.909,0,9.627,0.831,14.021,2.359c-13.171,0.843-23.628,11.83-23.628,25.214c0,13.921,11.331,25.246,25.258,25.246    c13.091,0,23.892-9.977,25.169-22.712c1.216,3.951,1.871,8.144,1.871,12.488v156.227c0,23.497-19.151,42.614-42.69,42.614H177.607    L177.607,377.196z M255.74,151.065c-28.191,0-54.685,10.962-74.6,30.868c-19.916,19.906-30.884,46.386-30.884,74.563    c0,28.161,10.969,54.628,30.885,74.524c19.916,19.895,46.409,30.852,74.598,30.852c58.162,0,105.479-47.271,105.479-105.376    c0-28.171-10.976-54.652-30.904-74.564C310.393,162.027,283.908,151.065,255.74,151.065L255.74,151.065z M255.74,322.294    c-36.317,0-65.863-29.517-65.863-65.798c0-36.311,29.546-65.853,65.863-65.853c36.309,0,65.848,29.542,65.848,65.853    C321.588,292.777,292.049,322.294,255.74,322.294L255.74,322.294z" style="fill:#174053;"/><path d="M364.039,478.061H147.415c-62.448,0-113.253-50.818-113.253-113.283V148.179    c0-62.454,50.805-113.263,113.253-113.263h216.624c62.459,0,113.272,50.81,113.272,113.263v216.599    C477.312,427.242,426.498,478.061,364.039,478.061z M147.415,44.818c-56.988,0-103.351,46.367-103.351,103.36v216.599    c0,57.004,46.363,103.381,103.351,103.381h216.624c56.998,0,103.37-46.377,103.37-103.381V148.179    c0-56.993-46.372-103.36-103.37-103.36H147.415z" style="fill:#174053;"/></g></g><g id="Layer_1"/></svg>